<svg xmlns="http://www.w3.org/2000/svg" width="179" height="227" fill="none"><g filter="url(#a)"><path fill="url(#b)" d="M42.95 103a3.95 3.95 0 0 0-3.95 3.951V198h43v-91.049A3.95 3.95 0 0 0 78.05 103h-35.1Z"/><path stroke="url(#c)" stroke-width=".732" d="M42.95 103.366a3.585 3.585 0 0 0-3.584 3.585v90.683h42.268v-90.683a3.585 3.585 0 0 0-3.585-3.585H42.951Z"/></g><g filter="url(#d)"><path fill="url(#e)" d="M136.049 56A3.95 3.95 0 0 1 140 59.95V197H97V59.95a3.95 3.95 0 0 1 3.951-3.95h35.098Z"/><path stroke="url(#f)" stroke-width=".732" d="M136.049 56.366a3.585 3.585 0 0 1 3.585 3.585v136.683H97.366V59.951a3.585 3.585 0 0 1 3.585-3.585h35.098Z"/></g><path fill="#E36D00" fill-rule="evenodd" d="M101.026.457C91.623.457 84 8.08 84 17.483c0 9.403 7.623 17.026 17.026 17.026h12.59l4.81 8.33 4.809-8.33h12.739c9.403 0 17.026-7.623 17.026-17.026C153 8.08 145.377.457 135.974.457h-34.948Z" clip-rule="evenodd"/><path fill="#fff" d="M104.333 24.907c-.919 0-1.732-.183-2.439-.55a4.185 4.185 0 0 1-1.659-1.55c-.4-.659-.6-1.428-.6-2.308 0-.86.203-1.636.61-2.33.413-.692 1.033-1.225 1.859-1.599l-.03.65c-.673-.326-1.189-.786-1.549-1.38a3.79 3.79 0 0 1-.54-1.989c0-.813.187-1.512.56-2.099a3.72 3.72 0 0 1 1.539-1.36c.653-.319 1.403-.479 2.249-.479.846 0 1.596.16 2.249.48a3.73 3.73 0 0 1 1.54 1.36c.373.586.559 1.286.559 2.098 0 .727-.17 1.387-.509 1.98-.34.586-.863 1.05-1.57 1.39l-.04-.64c.827.36 1.446.89 1.86 1.589.419.693.629 1.47.629 2.329 0 .88-.203 1.65-.609 2.309a4.17 4.17 0 0 1-1.67 1.55c-.706.366-1.519.55-2.439.55Zm0-1.7c.84 0 1.52-.23 2.039-.689.527-.466.79-1.14.79-2.02 0-.886-.26-1.559-.78-2.018-.513-.467-1.196-.7-2.049-.7-.846 0-1.529.233-2.049.7-.513.46-.77 1.133-.77 2.019 0 .88.26 1.553.78 2.019.52.46 1.2.69 2.039.69Zm0-7.136c.733 0 1.326-.184 1.779-.55.454-.373.68-.93.68-1.67 0-.74-.226-1.292-.68-1.659-.453-.373-1.046-.56-1.779-.56-.726 0-1.319.187-1.779.56-.453.367-.68.92-.68 1.66 0 .74.227 1.296.68 1.669.46.366 1.053.55 1.779.55Zm12.172 8.836c-.933 0-1.766-.21-2.499-.63a4.781 4.781 0 0 1-1.73-1.729c-.419-.733-.629-1.566-.629-2.499v-5.278c0-.933.21-1.766.629-2.499a4.682 4.682 0 0 1 1.73-1.73c.733-.419 1.566-.629 2.499-.629s1.766.21 2.499.63a4.58 4.58 0 0 1 1.729 1.73c.42.732.63 1.565.63 2.498v5.278c0 .933-.21 1.766-.63 2.499a4.68 4.68 0 0 1-1.729 1.73c-.733.42-1.566.63-2.499.63Zm0-1.71a2.95 2.95 0 0 0 1.539-.41 3.11 3.11 0 0 0 1.1-1.099c.273-.466.409-.98.409-1.539v-5.488c0-.566-.136-1.08-.409-1.54a3.11 3.11 0 0 0-1.1-1.099 2.957 2.957 0 0 0-1.539-.41c-.56 0-1.073.137-1.54.41a3.1 3.1 0 0 0-1.099 1.1 2.96 2.96 0 0 0-.41 1.54v5.487c0 .56.137 1.073.41 1.54.273.46.639.826 1.099 1.099.467.273.98.41 1.54.41Zm9.255 1.41-1.199-1.2 13.215-13.194 1.199 1.2-13.215 13.194Zm10.216.3a3.52 3.52 0 0 1-1.809-.48 3.782 3.782 0 0 1-1.299-1.3 3.475 3.475 0 0 1-.49-1.819c0-.653.166-1.252.5-1.799a3.819 3.819 0 0 1 1.319-1.31 3.408 3.408 0 0 1 1.779-.489c.66 0 1.263.163 1.81.49.546.32.979.753 1.299 1.3.327.539.49 1.142.49 1.808 0 .667-.163 1.273-.49 1.82-.32.54-.753.973-1.299 1.3a3.52 3.52 0 0 1-1.81.48Zm0-1.57c.367 0 .703-.093 1.01-.28.313-.186.56-.432.74-.739a1.91 1.91 0 0 0 .28-1.01 1.91 1.91 0 0 0-.28-1.01 1.973 1.973 0 0 0-.74-.739 1.906 1.906 0 0 0-1.01-.28c-.366 0-.703.094-1.009.28a2.07 2.07 0 0 0-.74.74 1.9 1.9 0 0 0-.28 1.01c0 .366.093.703.28 1.01.187.306.433.552.74.739.306.186.643.28 1.009.28Zm-8.416-6.227a3.52 3.52 0 0 1-1.81-.48 3.767 3.767 0 0 1-1.309-1.3 3.534 3.534 0 0 1-.48-1.818c0-.653.167-1.253.5-1.8a3.818 3.818 0 0 1 1.319-1.31 3.41 3.41 0 0 1 1.78-.489 3.41 3.41 0 0 1 1.799.49c.546.32.983.753 1.31 1.3a3.43 3.43 0 0 1 .489 1.809c0 .666-.163 1.272-.489 1.819a3.77 3.77 0 0 1-1.31 1.3c-.54.32-1.14.48-1.799.48Zm0-1.57a1.89 1.89 0 0 0 1.009-.28c.314-.186.56-.432.74-.739a1.9 1.9 0 0 0 .28-1.01c0-.366-.093-.702-.28-1.009a1.966 1.966 0 0 0-.74-.74 1.904 1.904 0 0 0-1.009-.28c-.367 0-.703.094-1.01.28a2.08 2.08 0 0 0-.74.74 1.91 1.91 0 0 0-.279 1.01c0 .366.093.703.279 1.01.187.306.434.552.74.739.307.187.643.28 1.01.28Z"/><path fill="url(#g)" d="M0 197h179v1H0z"/><defs><linearGradient id="b" x1="60.5" x2="82" y1="103" y2="198" gradientUnits="userSpaceOnUse"><stop offset=".111" stop-color="#7F7A72"/><stop offset="1" stop-color="#292622"/></linearGradient><linearGradient id="c" x1="47.5" x2="81.5" y1="103" y2="196" gradientUnits="userSpaceOnUse"><stop stop-color="silver"/><stop offset="1" stop-color="#1F1B18"/></linearGradient><linearGradient id="e" x1="118.5" x2="118.5" y1="197" y2="56" gradientUnits="userSpaceOnUse"><stop stop-color="#FFB168"/><stop offset="1" stop-color="#E36D00"/></linearGradient><linearGradient id="f" x1="97" x2="136.5" y1="56" y2="197" gradientUnits="userSpaceOnUse"><stop stop-color="#FFC48D"/><stop offset="1" stop-color="#FFA149"/></linearGradient><linearGradient id="g" x1="0" x2="179" y1="197.5" y2="197.5" gradientUnits="userSpaceOnUse"><stop stop-color="#9E642E" stop-opacity="0"/><stop offset=".252" stop-color="#9E642E"/><stop offset=".75" stop-color="#9E642E"/><stop offset="1" stop-color="#9E642E" stop-opacity="0"/></linearGradient><filter id="a" width="98.602" height="150.602" x="11.199" y="75.199" color-interpolation-filters="sRGB" filterUnits="userSpaceOnUse"><feFlood flood-opacity="0" result="BackgroundImageFix"/><feGaussianBlur in="BackgroundImageFix" stdDeviation="13.901"/><feComposite in2="SourceAlpha" operator="in" result="effect1_backgroundBlur_2300_8"/><feBlend in="SourceGraphic" in2="effect1_backgroundBlur_2300_8" result="shape"/></filter><filter id="d" width="89.823" height="187.823" x="73.588" y="38.441" color-interpolation-filters="sRGB" filterUnits="userSpaceOnUse"><feFlood flood-opacity="0" result="BackgroundImageFix"/><feColorMatrix in="SourceAlpha" result="hardAlpha" values="0 0 0 0 0 0 0 0 0 0 0 0 0 0 0 0 0 0 127 0"/><feOffset dy="5.853"/><feGaussianBlur stdDeviation="11.706"/><feComposite in2="hardAlpha" operator="out"/><feColorMatrix values="0 0 0 0 0.894118 0 0 0 0 0.435294 0 0 0 0 0.0117647 0 0 0 0.37 0"/><feBlend in2="BackgroundImageFix" result="effect1_dropShadow_2300_8"/><feBlend in="SourceGraphic" in2="effect1_dropShadow_2300_8" result="shape"/></filter></defs></svg>